<svg xmlns="http://www.w3.org/2000/svg" xmlns:xlink="http://www.w3.org/1999/xlink" width="500" zoomAndPan="magnify" viewBox="0 0 375 374.999991" height="500" preserveAspectRatio="xMidYMid meet" version="1.0"><defs><g/><clipPath id="b9498953db"><path d="M 98.496094 37.5 L 276.246094 37.5 L 276.246094 215.25 L 98.496094 215.25 Z M 98.496094 37.5 " clip-rule="nonzero"/></clipPath></defs><rect x="-37.5" width="450" fill="#ffffff" y="-37.499999" height="449.999989" fill-opacity="1"/><g clip-path="url(#b9498953db)"><path fill="#ff6b6b" d="M 190.875 41.054688 L 276.191406 126.375 L 205.769531 196.835938 L 198.765625 189.902344 L 187.425781 178.492188 L 176.011719 189.902344 L 169.011719 196.835938 L 98.550781 126.375 L 187.425781 37.5 Z M 178.144531 78.382812 L 185.894531 78.382812 L 185.894531 70.527344 L 178.144531 70.527344 Z M 188.8125 78.382812 L 196.667969 78.382812 L 196.667969 70.527344 L 188.8125 70.527344 Z M 178.144531 89.046875 L 185.894531 89.046875 L 185.894531 81.296875 L 178.144531 81.296875 Z M 188.8125 89.046875 L 196.667969 89.046875 L 196.667969 81.296875 L 188.8125 81.296875 Z M 187.425781 215.25 L 198.730469 203.839844 L 187.425781 192.535156 L 176.011719 203.839844 Z M 169.011719 182.863281 L 180.421875 171.453125 L 187.425781 164.519531 L 191.546875 160.324219 L 220.273438 131.601562 C 223.542969 128.4375 225.144531 124.101562 225.144531 119.796875 C 225.144531 115.496094 223.542969 111.195312 220.273438 107.925781 C 217.003906 104.652344 212.699219 103.054688 208.398438 103.054688 C 204.097656 103.054688 199.902344 104.652344 196.597656 107.925781 L 187.425781 117.097656 L 178.253906 107.925781 C 174.980469 104.652344 170.679688 103.054688 166.378906 103.054688 C 162.078125 103.054688 157.777344 104.652344 154.503906 107.925781 C 151.339844 111.195312 149.636719 115.496094 149.636719 119.796875 C 149.636719 124.101562 151.304688 128.402344 154.503906 131.601562 L 180.421875 157.515625 L 173.417969 164.519531 C 161.898438 152.929688 147.609375 138.605469 147.609375 138.605469 C 142.382812 133.378906 139.859375 126.554688 139.859375 119.796875 C 139.859375 112.972656 142.382812 106.148438 147.609375 100.992188 C 152.761719 95.765625 159.589844 93.136719 166.414062 93.136719 C 173.242188 93.136719 180.066406 95.765625 185.222656 100.992188 L 187.460938 103.160156 L 189.628906 100.992188 C 194.855469 95.765625 201.679688 93.136719 208.433594 93.136719 C 215.261719 93.136719 222.085938 95.765625 227.347656 100.992188 C 232.503906 106.148438 235.097656 112.972656 235.097656 119.796875 C 235.097656 126.515625 232.464844 133.378906 227.347656 138.605469 C 227.347656 138.605469 208.078125 157.871094 196.207031 169.675781 L 196.097656 169.78125 L 195.53125 170.351562 L 194.394531 171.488281 L 205.804688 182.898438 L 262.257812 126.375 L 187.425781 51.542969 L 112.484375 126.375 Z M 169.011719 182.863281 " fill-opacity="1" fill-rule="nonzero"/></g><g fill="#ff6b6b" fill-opacity="1"><g transform="translate(159.001984, 280.504968)"><g><path d="M 1.949219 -35.832031 L 7.214844 -35.832031 L 7.214844 -4.875 L 14.1875 -4.875 L 14.1875 0 L 1.949219 0 Z M 1.949219 -35.832031 "/></g></g></g><g fill="#ff6b6b" fill-opacity="1"><g transform="translate(179.719925, 280.504968)"><g><path d="M 1.949219 -35.832031 L 13.992188 -35.832031 L 13.992188 -30.417969 L 7.214844 -30.417969 L 7.214844 -21.011719 L 12.089844 -21.011719 L 12.089844 -15.257812 L 7.214844 -15.257812 L 7.214844 -5.410156 L 13.992188 -5.410156 L 13.992188 0 L 1.949219 0 Z M 1.949219 -35.832031 "/></g></g></g><g fill="#ff6b6b" fill-opacity="1"><g transform="translate(201.022828, 280.504968)"><g><path d="M 1.949219 -35.832031 L 13.992188 -35.832031 L 13.992188 -30.417969 L 7.214844 -30.417969 L 7.214844 -21.011719 L 12.089844 -21.011719 L 12.089844 -15.257812 L 7.214844 -15.257812 L 7.214844 -5.410156 L 13.992188 -5.410156 L 13.992188 0 L 1.949219 0 Z M 1.949219 -35.832031 "/></g></g></g><g fill="#000000" fill-opacity="1"><g transform="translate(140.275531, 302.786335)"><g><path d="M 0.53125 -9.390625 L 2.015625 -9.390625 L 2.015625 -1.34375 L 4.4375 -1.34375 L 4.4375 0 L 0.53125 0 Z M 0.53125 -9.390625 "/></g></g></g><g fill="#000000" fill-opacity="1"><g transform="translate(150.179897, 302.786335)"><g><path d="M 2.015625 -5.421875 L 4.03125 -5.421875 L 4.03125 -4.09375 L 2.015625 -4.09375 L 2.015625 -1.34375 L 4.5625 -1.34375 L 4.5625 0 L 0.53125 0 L 0.53125 -9.390625 L 4.5625 -9.390625 L 4.5625 -8.046875 L 2.015625 -8.046875 Z M 2.015625 -5.421875 "/></g></g></g><g fill="#000000" fill-opacity="1"><g transform="translate(160.472783, 302.786335)"><g><path d="M 2.015625 -5.421875 L 4.03125 -5.421875 L 4.03125 -4.09375 L 2.015625 -4.09375 L 2.015625 -1.34375 L 4.5625 -1.34375 L 4.5625 0 L 0.53125 0 L 0.53125 -9.390625 L 4.5625 -9.390625 L 4.5625 -8.046875 L 2.015625 -8.046875 Z M 2.015625 -5.421875 "/></g></g></g><g fill="#000000" fill-opacity="1"><g transform="translate(170.765666, 302.786335)"><g/></g></g><g fill="#000000" fill-opacity="1"><g transform="translate(178.204949, 302.786335)"><g><path d="M 2.015625 -5.21875 L 3.921875 -5.21875 L 3.921875 -3.875 L 2.015625 -3.875 L 2.015625 0 L 0.53125 0 L 0.53125 -9.390625 L 4.4375 -9.390625 L 4.4375 -8.046875 L 2.015625 -8.046875 Z M 2.015625 -5.21875 "/></g></g></g><g fill="#000000" fill-opacity="1"><g transform="translate(188.176295, 302.786335)"><g><path d="M 5.3125 0 L 3.828125 0 L 3.5625 -1.703125 L 1.75 -1.703125 L 1.5 0 L 0.140625 0 L 1.65625 -9.390625 L 3.8125 -9.390625 Z M 1.9375 -2.96875 L 3.359375 -2.96875 L 2.65625 -7.71875 Z M 1.9375 -2.96875 "/></g></g></g><g fill="#000000" fill-opacity="1"><g transform="translate(198.991671, 302.786335)"><g><path d="M 3.65625 -2.71875 L 4.671875 -9.390625 L 6.71875 -9.390625 L 6.71875 0 L 5.328125 0 L 5.328125 -6.734375 L 4.296875 0 L 2.90625 0 L 1.8125 -6.640625 L 1.8125 0 L 0.515625 0 L 0.515625 -9.390625 L 2.578125 -9.390625 Z M 3.65625 -2.71875 "/></g></g></g><g fill="#000000" fill-opacity="1"><g transform="translate(211.60227, 302.786335)"><g><path d="M 0.53125 -9.390625 L 2.015625 -9.390625 L 2.015625 0 L 0.53125 0 Z M 0.53125 -9.390625 "/></g></g></g><g fill="#000000" fill-opacity="1"><g transform="translate(219.510454, 302.786335)"><g><path d="M 0.53125 -9.390625 L 2.015625 -9.390625 L 2.015625 -1.34375 L 4.4375 -1.34375 L 4.4375 0 L 0.53125 0 Z M 0.53125 -9.390625 "/></g></g></g><g fill="#000000" fill-opacity="1"><g transform="translate(229.414822, 302.786335)"><g><path d="M 1.921875 -3.109375 L 0.046875 -9.390625 L 1.59375 -9.390625 L 2.71875 -5.109375 L 3.84375 -9.390625 L 5.25 -9.390625 L 3.390625 -3.109375 L 3.390625 0 L 1.921875 0 Z M 1.921875 -3.109375 "/></g></g></g></svg>