<svg xmlns="http://www.w3.org/2000/svg" xmlns:xlink="http://www.w3.org/1999/xlink" width="500" zoomAndPan="magnify" viewBox="0 0 375 374.999991" height="500" preserveAspectRatio="xMidYMid meet" version="1.0"><rect x="-37.5" width="450" fill="#ffffff" y="-37.499999" height="449.999989" fill-opacity="1"/><path fill="#ff6b6b" d="M 194.886719 7.5 L 374.886719 187.5 L 226.3125 336.148438 L 211.539062 321.523438 L 187.613281 297.449219 L 163.539062 321.523438 L 148.761719 336.148438 L 0.113281 187.5 L 187.613281 0 Z M 168.039062 86.25 L 184.386719 86.25 L 184.386719 69.675781 L 168.039062 69.675781 Z M 190.539062 86.25 L 207.113281 86.25 L 207.113281 69.675781 L 190.539062 69.675781 Z M 168.039062 108.75 L 184.386719 108.75 L 184.386719 92.398438 L 168.039062 92.398438 Z M 190.539062 108.75 L 207.113281 108.75 L 207.113281 92.398438 L 190.539062 92.398438 Z M 187.613281 375 L 211.460938 350.925781 L 187.613281 327.074219 L 163.539062 350.925781 Z M 148.761719 306.675781 L 172.835938 282.601562 L 187.613281 267.976562 L 196.3125 259.125 L 256.914062 198.523438 C 263.8125 191.851562 267.1875 182.699219 267.1875 173.625 C 267.1875 164.550781 263.8125 155.476562 256.914062 148.574219 C 250.011719 141.675781 240.9375 138.300781 231.863281 138.300781 C 222.789062 138.300781 213.9375 141.675781 206.960938 148.574219 L 187.613281 167.925781 L 168.261719 148.574219 C 161.363281 141.675781 152.289062 138.300781 143.210938 138.300781 C 134.136719 138.300781 125.0625 141.675781 118.164062 148.574219 C 111.488281 155.476562 107.886719 164.550781 107.886719 173.625 C 107.886719 182.699219 111.414062 191.773438 118.164062 198.523438 L 172.835938 253.199219 L 158.0625 267.976562 C 133.761719 243.523438 103.613281 213.300781 103.613281 213.300781 C 92.585938 202.273438 87.261719 187.875 87.261719 173.625 C 87.261719 159.226562 92.585938 144.824219 103.613281 133.949219 C 114.488281 122.925781 128.886719 117.375 143.289062 117.375 C 157.6875 117.375 172.085938 122.925781 182.960938 133.949219 L 187.6875 138.523438 L 192.261719 133.949219 C 203.289062 122.925781 217.6875 117.375 231.9375 117.375 C 246.335938 117.375 260.738281 122.925781 271.835938 133.949219 C 282.710938 144.824219 288.1875 159.226562 288.1875 173.625 C 288.1875 187.800781 282.636719 202.273438 271.835938 213.300781 C 271.835938 213.300781 231.1875 253.949219 206.136719 278.851562 L 205.914062 279.074219 L 204.710938 280.273438 L 202.3125 282.675781 L 226.386719 306.75 L 345.488281 187.5 L 187.613281 29.625 L 29.511719 187.5 Z M 148.761719 306.675781 " fill-opacity="1" fill-rule="nonzero"/></svg>